<svg xmlns="http://www.w3.org/2000/svg" width="1024" height="1024" viewBox="0 0 1024 1024">
<g>
<path d="M 0.00 512.00 L 0.00 0.00 L 512.00 0.00 L 1024.00 0.00 L 1024.00 512.00 L 1024.00 1024.00 L 512.00 1024.00 L 0.00 1024.00 L 0.00 512.00 ZM 272.79 717.25 C267.46,706.63 267.55,707.06 267.58,692.50 C267.63,670.67 271.24,658.90 300.64,584.75 L 304.50 575.01 L 352.08 575.00 C395.10,575.00 400.70,575.19 410.62,576.98 C429.52,580.38 446.19,587.00 461.17,597.07 C469.13,602.42 486.44,619.70 491.28,627.13 C493.30,630.23 499.50,642.81 505.06,655.07 C517.40,682.34 519.19,685.90 524.34,693.50 C532.60,705.68 543.35,713.46 556.09,716.46 C560.66,717.54 568.18,717.97 582.25,717.99 C593.11,717.99 602.00,717.74 602.00,717.43 C602.00,717.12 600.71,714.98 599.13,712.68 C586.23,693.86 569.65,663.24 555.73,632.50 C536.73,590.57 523.01,560.11 514.72,541.50 C496.29,500.15 465.71,432.68 441.59,380.14 C432.59,360.54 420.85,334.83 415.50,323.00 C410.16,311.17 405.42,300.84 404.98,300.03 C403.94,298.13 405.40,294.79 377.43,363.00 C364.47,394.62 349.87,430.17 344.99,442.00 C340.10,453.83 328.39,482.40 318.96,505.50 C261.31,646.65 247.18,679.98 234.40,705.00 C231.17,711.33 228.37,716.84 228.18,717.25 C227.99,717.66 238.03,718.00 250.50,718.00 C262.97,718.00 273.00,717.66 272.79,717.25 ZM 687.00 528.42 L 687.00 338.83 L 730.25 339.27 C769.29,339.66 774.38,339.90 782.50,341.75 C803.81,346.60 820.99,355.73 834.00,369.14 L 841.00 376.35 L 841.00 351.68 L 841.00 327.00 L 651.51 327.00 L 462.03 327.00 L 464.40 332.25 C465.71,335.14 470.24,344.61 474.46,353.31 L 482.13 369.11 L 485.91 365.70 C495.59,356.95 509.44,349.42 524.60,344.67 C540.00,339.84 550.17,339.00 593.38,339.00 L 633.00 339.00 L 633.00 528.50 L 633.00 718.00 L 660.00 718.00 L 687.00 718.00 L 687.00 528.42 ZM 468.69 589.97 C456.97,580.76 443.18,573.34 428.95,568.58 C410.87,562.54 404.92,562.01 354.68,562.00 L 309.87 562.00 L 310.56 559.75 C311.22,557.60 331.77,506.31 343.31,478.00 C346.33,470.58 352.38,455.73 356.75,445.00 C376.06,397.57 382.53,382.04 383.00,382.02 C383.27,382.01 386.73,389.32 390.68,398.25 C394.62,407.19 406.93,434.75 418.02,459.50 C466.55,567.83 479.41,596.96 478.88,597.38 C478.67,597.54 474.09,594.21 468.69,589.97 Z" fill="rgba(0,0,0,1)"/>
</g>
</svg>